Coordinates
version=1
nRows=8
nColumns=36
inDegrees=yes

Units are S.I. units (second, meters, Newtons, ...)
If the header above contains a line with 'inDegrees', this indicates whether rotational values are in degrees (yes) or radians (no).

endheader
time	pelvis_tilt	pelvis_list	pelvis_rotation	pelvis_tx	pelvis_ty	pelvis_tz	hip_flexion_r	hip_adduction_r	hip_rotation_r	knee_angle_r	knee_angle_r_beta	ankle_angle_r	subtalar_angle_r	mtp_angle_r	hip_flexion_l	hip_adduction_l	hip_rotation_l	knee_angle_l	knee_angle_l_beta	ankle_angle_l	subtalar_angle_l	mtp_angle_l	lumbar_extension	lumbar_bending	lumbar_rotation	arm_flex_r	arm_add_r	arm_rot_r	elbow_flex_r	pro_sup_r	arm_flex_l	arm_add_l	arm_rot_l	elbow_flex_l	pro_sup_l
      3.62916670	     -5.89635650	     -0.18926302	      1.36917140	      0.16806731	      1.01203190	     -0.12704045	     27.81603790	     -5.91156377	    -10.55390363	     43.18821872	      0.75377661	     24.12269582	     -5.58175933	     -7.49999987	     27.98030448	     -8.23481805	     -6.43724350	     44.14056877	      0.77039826	     23.83292951	     10.50227324	     -7.49999987	    -12.97114053	      0.62642202	      0.64648834	     -0.11669731	     -7.81364041	      3.72352535	     58.49274724	     83.41005781	      5.15017521	     -7.30137180	      5.38616131	     67.64888668	     96.54168366
      3.63333330	     -6.02015443	     -0.01106258	      1.28963078	      0.16903515	      1.01561107	     -0.12775500	     27.41732964	     -5.94553157	    -10.49121851	     42.02329031	      0.73344478	     23.44862457	     -5.64399035	     -7.49999987	     27.32499962	     -7.89670927	     -6.74823640	     42.71788924	      0.74556782	     23.15687870	     10.38865136	     -7.49999987	    -12.58600947	      0.49655881	      0.58968259	     -0.29403783	     -7.76373511	      3.87962061	     58.70993190	     82.75643266	      4.93953262	     -7.44689811	      5.78950931	     67.95817188	     96.02086854
      3.63750000	     -6.46398344	      0.10348107	      1.22209241	      0.17014467	      1.02118366	     -0.12728531	     27.17228433	     -5.89097504	    -10.42635559	     40.58297313	      0.70830650	     22.89512794	     -5.57544113	     -7.49999987	     27.03253638	     -7.55590795	     -6.72785520	     41.25422241	      0.72002201	     22.27525305	      9.81194678	     -7.49999987	    -11.73542839	      0.44600571	      0.61947933	     -0.72343982	     -7.77019778	      3.98259559	     58.99483069	     82.01390606	      4.47170538	     -7.39671729	      6.03439994	     68.24889826	     94.47197484
      3.64166670	     -5.99173146	      0.23133020	      1.17643427	      0.17014743	      1.02629763	     -0.12887689	     25.83257978	     -5.85326676	    -10.48498590	     38.97696207	      0.68027632	     22.02689648	     -5.36970843	     -7.49999987	     25.72424762	     -7.36727540	     -7.21946226	     39.78534034	      0.69438518	     21.44985382	     10.22304331	     -7.49999987	    -12.26234485	      0.35222280	      0.67207212	     -0.82487897	     -7.76965503	      3.87494789	     59.54616410	     83.39327920	      4.45136966	     -7.56303344	      6.32569112	     68.88271482	     99.83099295
      3.64583330	     -5.87775917	      0.29788071	      1.18867584	      0.17158074	      1.03054549	     -0.12761687	     24.89889925	     -5.71941708	    -10.51017580	     37.50523296	      0.65458980	     21.51557378	     -5.00929815	     -7.49999987	     24.80761426	     -7.19418801	     -7.41224207	     38.28584349	      0.66821403	     20.68613005	     10.43325206	     -7.49999987	    -12.14799764	      0.31637306	      0.54344314	     -0.98392635	     -7.75085029	      4.07185150	     59.73586266	     82.87642432	      4.15855339	     -7.69338098	      6.76709821	     69.27121177	     97.76401136
      3.65000000	     -5.73933952	      0.35043670	      1.20607894	      0.17302751	      1.03217339	     -0.12729689	     24.01884225	     -5.56250758	    -10.45169260	     36.24582343	      0.63260896	     21.02732610	     -4.76624763	     -7.49999987	     23.92472536	     -7.10144184	     -7.66676420	     37.03506049	      0.64638374	     20.04620886	     10.32162433	     -7.49999987	    -12.08321477	      0.25474441	      0.52354913	     -1.17117003	     -7.80441056	      4.28038547	     60.10008338	     82.76615248	      3.89059385	     -7.85055278	      7.18602065	     69.78793446	     97.33123380
      3.65416670	     -5.81015927	      0.39490999	      1.32276862	      0.17479435	      1.02898112	     -0.12751656	     23.51319383	     -5.48589636	    -10.42879551	     35.34490073	      0.61688489	     20.88845877	     -4.54833567	     -7.49999987	     23.56341784	     -6.99174873	     -7.77061768	     36.26130247	      0.63287912	     19.79400046	     10.37252645	     -7.49999987	    -11.71941282	      0.19217055	      0.46869016	     -1.54987300	     -7.87042544	      4.36289659	     60.68066976	     82.72477556	      3.52946178	     -7.96739314	      7.38111674	     70.48227365	     98.98009357
      3.65833330	     -6.10719913	      0.45553766	      1.47819369	      0.17444109	      1.03475339	     -0.12756988	     23.22582931	     -5.42513809	    -10.45946692	     34.33004066	      0.59917224	     20.63297391	     -4.38364820	     -7.49999987	     23.38665554	     -6.84877225	     -7.93918515	     35.39272536	      0.61771959	     19.44402247	     10.38958401	     -7.49999987	    -11.04725915	      0.06934100	      0.39359966	     -1.87377577	     -7.85220081	      4.41107020	     60.83374688	     82.72659668	      3.20528318	     -8.00117722	      7.54491425	     70.67452826	     98.99848067
